<svg width="24" height="24" viewBox="0 0 24 24" fill="none" xmlns="http://www.w3.org/2000/svg">
<rect width="24" height="24" fill="white"/>
<path d="M14.1308 12.5239C14.2339 13.0527 14.6991 13.4542 15.2586 13.4542C15.8928 13.4542 16.4084 12.9408 16.4084 12.3044C16.4084 11.6703 15.8949 11.1547 15.2586 11.1547C14.6991 11.1547 14.2339 11.554 14.1308 12.085H13.0754C12.9547 12.085 12.856 12.1838 12.856 12.3044C12.856 12.4251 12.9547 12.5239 13.0754 12.5239H14.1308Z" fill="#5459E8"/>
<path d="M15.059 4.08283L13.6393 4.24301C13.6305 4.24301 13.6218 4.2452 13.6152 4.2452C13.5055 4.2452 13.4111 4.16182 13.398 4.04992C13.3848 3.92924 13.4704 3.82172 13.5911 3.80636L14.9646 3.65277L14.9229 3.47724C14.9229 2.84092 9.79731 2.84092 9.79731 3.47724L9.17416 6.27043H15.5461L15.059 4.08283ZM14.675 5.07241L12.72 5.3028C12.7112 5.3028 12.7024 5.30499 12.6936 5.30499C12.5839 5.30499 12.4896 5.22381 12.4764 5.1119C12.4632 4.99122 12.5488 4.88151 12.6695 4.86835L14.6245 4.63796C14.743 4.6226 14.8549 4.71037 14.8681 4.83105C14.8812 4.94953 14.7957 5.05705 14.675 5.07241Z" fill="#5459E8"/>
<path d="M13.9334 16.3703C14.5675 16.3703 15.0831 15.8568 15.0831 15.2205C15.0831 14.5864 14.5697 14.0708 13.9334 14.0708C13.3738 14.0708 12.9087 14.4701 12.8055 15.0011H11.5549V13.09C11.5549 12.0038 10.675 11.124 9.58887 11.124C9.0118 11.124 8.59271 11.328 8.23506 11.7252C8.83187 11.8327 9.36725 12.1531 9.74685 12.6292C9.82145 12.7213 9.79073 12.8947 9.69638 12.9671C9.60423 13.0395 9.38481 13.0329 9.31021 12.9408C8.98766 12.5348 8.52908 12.2671 8.01783 12.1838C6.89002 12.0038 5.82584 12.7718 5.64372 13.8996C5.55596 14.446 5.68541 14.9945 6.01015 15.4421C6.33489 15.8897 6.81322 16.186 7.35958 16.2737C7.47587 16.2935 7.56583 16.4185 7.54608 16.5721C7.52633 16.7323 7.39468 16.7828 7.28936 16.7828C7.27839 16.7828 7.26742 16.7828 7.25425 16.7806C6.8593 16.717 6.49726 16.5634 6.18349 16.3352C5.95749 16.6445 5.85875 16.943 5.85875 17.3555C5.85875 18.3758 6.67499 19.203 7.6887 19.2271C7.77208 20.2189 8.60368 21 9.61739 21C10.1221 21 10.5784 20.8047 10.9229 20.491C10.9624 20.4493 11.0019 20.4076 11.0392 20.3615C11.7019 19.5475 11.579 18.3472 10.765 17.6868C10.6728 17.6122 10.5872 17.373 10.6947 17.237C10.7693 17.1448 10.9449 17.1492 11.0348 17.2238C11.2455 17.395 11.4166 17.599 11.5505 17.8184V15.4421C11.5417 15.4421 11.5329 15.4443 11.5241 15.4443C11.3793 15.429 11.2367 15.4685 11.1204 15.5584C11.0809 15.5891 11.0326 15.6045 10.9844 15.6045C10.9185 15.6045 10.8549 15.576 10.811 15.5211C10.7364 15.4268 10.7518 15.2885 10.8483 15.2139C11.048 15.0582 11.2959 14.9879 11.5461 15.0099V15.4421H12.7946C12.9109 15.9709 13.3738 16.3703 13.9334 16.3703ZM9.82145 19.034C9.79951 19.1371 9.70735 19.2074 9.60642 19.2074C9.59106 19.2074 9.5757 19.2052 9.55815 19.203C9.43966 19.1766 9.36506 19.0603 9.39139 18.9419C9.43089 18.7641 9.39797 18.5798 9.30143 18.4262C9.20269 18.2704 9.05129 18.1629 8.87137 18.1234C8.69145 18.0817 8.50713 18.1147 8.35135 18.2134C8.25261 18.2748 8.11657 18.2441 8.05074 18.141C7.98711 18.0379 8.01564 17.904 8.11876 17.8382C8.37329 17.678 8.67609 17.6253 8.96791 17.6912C9.26193 17.757 9.51207 17.9347 9.67225 18.1893C9.83462 18.4438 9.88728 18.7422 9.82145 19.034ZM10.1703 14.1893C10.0123 14.5557 9.71613 14.8343 9.33654 14.977C9.3124 14.9857 9.28607 14.9901 9.26193 14.9967C9.1983 15.0362 9.15003 15.0955 9.12809 15.1701C9.08201 15.3324 9.17636 15.5014 9.33873 15.5497C9.45502 15.5826 9.52304 15.7054 9.48793 15.8217C9.45941 15.9183 9.37164 15.9797 9.27729 15.9797C9.25755 15.9797 9.2378 15.9775 9.21586 15.9709C8.82749 15.859 8.60148 15.4575 8.70242 15.0691C8.5203 15.0582 8.34038 15.0165 8.16704 14.9419C7.79402 14.7817 7.5022 14.4899 7.34422 14.1234C7.29594 14.0115 7.34861 13.8821 7.46051 13.836C7.57241 13.7877 7.70187 13.8404 7.74795 13.9523C7.85985 14.2156 8.07049 14.424 8.34038 14.5403C8.61246 14.6566 8.91086 14.6676 9.18075 14.5667C9.44844 14.4679 9.65689 14.2726 9.7666 14.0159C9.81487 13.904 9.94213 13.8535 10.054 13.9018C10.1659 13.9501 10.2186 14.0795 10.1703 14.1893Z" fill="#5459E8"/>
<path d="M18.054 11.5562L16.088 9.36863C16.0595 9.33791 16.0244 9.32036 15.9849 9.30939C15.9849 9.30719 15.9871 9.3028 15.9871 9.30061V8.5502H16.2241C16.6081 8.5502 16.9196 8.23862 16.9196 7.85464V7.54746C16.9196 7.16347 16.6081 6.8519 16.2241 6.8519H8.69363C8.30965 6.8519 7.99808 7.16347 7.99808 7.54746V7.85464C7.99808 8.23862 8.30965 8.5502 8.69363 8.5502H8.92402V9.29622H8.86697C8.80554 9.29622 8.74629 9.32255 8.7046 9.36863L7.90373 10.2595C7.82254 10.3494 7.82912 10.4877 7.92128 10.5688C8.01124 10.65 8.14948 10.6413 8.23066 10.5513L8.96571 9.73286H15.8291L17.7446 11.8634C17.8741 11.9819 17.9465 12.1377 17.9465 12.3023V16.2715C17.9465 17.1404 17.5735 17.9567 16.8977 18.5732C16.8077 18.6544 16.8011 18.7927 16.8823 18.8826C16.9262 18.9309 16.9855 18.955 17.0447 18.955C17.0974 18.955 17.15 18.9353 17.1917 18.898C17.9487 18.2068 18.3832 17.2501 18.3832 16.2715V12.3044C18.3832 12.0192 18.2581 11.7405 18.054 11.5562ZM15.5461 9.29622H9.36067V8.5502H15.5461V9.29622Z" fill="#5459E8"/>
<path d="M16.2614 15.8546C16.1407 15.8634 16.0507 15.9687 16.0595 16.0894L16.11 16.7696C16.121 16.9737 16.0464 17.1733 15.9059 17.3225L14.6925 18.6127C14.4951 18.4701 14.2515 18.3845 13.9882 18.3933C13.3541 18.413 12.856 18.9418 12.8736 19.576C12.8933 20.2101 13.4221 20.7082 14.0562 20.6906C14.6904 20.6709 15.1884 20.1421 15.1709 19.5079C15.1643 19.2973 15.0985 19.102 14.9932 18.9353L16.2263 17.6253C16.4479 17.3906 16.5642 17.0724 16.5488 16.7433L16.4984 16.0565C16.4874 15.9358 16.3799 15.8437 16.2614 15.8546Z" fill="#5459E8"/>
</svg>
