<svg width="24" height="24" viewBox="0 0 24 24" fill="none" xmlns="http://www.w3.org/2000/svg">
<path fill-rule="evenodd" clip-rule="evenodd" d="M12 5.23077C8.26146 5.23077 5.23077 8.26146 5.23077 12C5.23077 15.7385 8.26146 18.7692 12 18.7692C15.7385 18.7692 18.7692 15.7385 18.7692 12C18.7692 8.26146 15.7385 5.23077 12 5.23077ZM4 12C4 7.58172 7.58172 4 12 4C16.4183 4 20 7.58172 20 12C20 16.4183 16.4183 20 12 20C7.58172 20 4 16.4183 4 12Z" fill="#616293"/>
<path d="M12.6152 8.92316C12.6152 8.5833 12.3397 8.30778 11.9998 8.30778C11.6599 8.30778 11.3844 8.5833 11.3844 8.92316V11.3853H8.9229C8.58303 11.3853 8.30752 11.6608 8.30752 12.0006C8.30752 12.3405 8.58303 12.616 8.9229 12.616H11.3844V15.077C11.3844 15.4169 11.6599 15.6924 11.9998 15.6924C12.3397 15.6924 12.6152 15.4169 12.6152 15.077V12.616H15.0767C15.4166 12.616 15.6921 12.3405 15.6921 12.0006C15.6921 11.6608 15.4166 11.3853 15.0767 11.3853H12.6152V8.92316Z" fill="#616293"/>
</svg>
