<svg width="36" height="36" viewBox="0 0 36 36" fill="none" xmlns="http://www.w3.org/2000/svg">
<path fill-rule="evenodd" clip-rule="evenodd" d="M16.1254 26.625C16.1254 27.6605 16.9648 28.5 18.0004 28.5C19.0359 28.5 19.8754 27.6605 19.8754 26.625H21.3754C21.3754 28.489 19.8643 30 18.0004 30C16.1364 30 14.6254 28.489 14.6254 26.625H16.1254Z" fill="#616293"/>
<path fill-rule="evenodd" clip-rule="evenodd" d="M18.0002 10.6875C14.7901 10.6875 12.1877 13.2898 12.1877 16.5H10.3127C10.3127 12.2543 13.7546 8.8125 18.0002 8.8125C22.2459 8.8125 25.6877 12.2543 25.6877 16.5H23.8127C23.8127 13.2898 21.2104 10.6875 18.0002 10.6875Z" fill="#616293"/>
<path d="M10.3128 22.0074V16.5H12.1878V22.0074C12.1878 23.0516 11.773 24.0532 11.0346 24.7916L10.5137 25.3125H17.2503V27.1875H10.061C8.5576 27.1875 7.80469 25.3698 8.86776 24.3068L9.70875 23.4658C10.0955 23.079 10.3128 22.5544 10.3128 22.0074Z" fill="#616293"/>
<path d="M18.7504 27.1875H17.2503V25.3125H18.7504V27.1875Z" fill="#616293"/>
<path d="M25.6879 16.5V22.0074C25.6879 22.5544 25.9052 23.079 26.292 23.4658L27.133 24.3068C28.196 25.3698 27.4431 27.1875 25.9397 27.1875H18.7504V25.3125H25.4871L24.9662 24.7916C24.2277 24.0532 23.8129 23.0516 23.8129 22.0074V16.5H25.6879Z" fill="#616293"/>
<path d="M18.7504 8.25C18.7504 7.83579 18.4146 7.5 18.0004 7.5C17.5862 7.5 17.2504 7.83579 17.2504 8.25L17.2504 9.375H15.7504V8.25C15.7504 7.00736 16.7577 6 18.0004 6C19.243 6 20.2504 7.00736 20.2504 8.25V9.375H18.7504V8.25Z" fill="#616293"/>
</svg>
