<svg width="24" height="24" viewBox="0 0 24 24" fill="none" xmlns="http://www.w3.org/2000/svg">
<path fill-rule="evenodd" clip-rule="evenodd" d="M9.125 9C8.77982 9 8.5 8.72018 8.5 8.375V7.625H7C6.58579 7.625 6.25 7.96079 6.25 8.375V9.625H17.75V8.375C17.75 7.96079 17.4142 7.625 17 7.625H15.25V8.375C15.25 8.72018 14.9702 9 14.625 9C14.2798 9 14 8.72018 14 8.375V7.625H9.75V8.375C9.75 8.72018 9.47018 9 9.125 9ZM14 6.375H9.75V5.625C9.75 5.27982 9.47018 5 9.125 5C8.77982 5 8.5 5.27982 8.5 5.625V6.375H7C5.89543 6.375 5 7.27043 5 8.375V17.375C5 18.4796 5.89543 19.375 7 19.375H17C18.1046 19.375 19 18.4796 19 17.375V8.375C19 7.27043 18.1046 6.375 17 6.375H15.25V5.625C15.25 5.27982 14.9702 5 14.625 5C14.2798 5 14 5.27982 14 5.625V6.375ZM6.25 10.875V17.375C6.25 17.7892 6.58579 18.125 7 18.125H17C17.4142 18.125 17.75 17.7892 17.75 17.375V10.875H6.25Z" fill="#242424"/>
</svg>
