<svg width="24" height="24" viewBox="0 0 24 24" fill="none" xmlns="http://www.w3.org/2000/svg">
<path d="M12 4C7.58974 4 4 7.58974 4 12C4 16.4103 7.58974 20 12 20C16.4103 20 20 16.4103 20 12C20 7.58974 16.4103 4 12 4ZM12 18.7692C8.26667 18.7692 5.23077 15.7333 5.23077 12C5.23077 8.26667 8.26667 5.23077 12 5.23077C15.7333 5.23077 18.7692 8.26667 18.7692 12C18.7692 15.7333 15.7333 18.7692 12 18.7692Z" fill="#242424"/>
<path d="M14.8923 9.10761C14.6564 8.87172 14.2667 8.87172 14.0205 9.10761L12 11.1281L9.96923 9.10761C9.73334 8.87172 9.34359 8.87172 9.09744 9.10761C8.86154 9.34351 8.86154 9.73325 9.09744 9.97941L11.1282 11.9999L9.09744 14.0307C8.86154 14.2666 8.86154 14.6563 9.09744 14.9025C9.22052 15.0256 9.37436 15.0871 9.52821 15.0871C9.68206 15.0871 9.84616 15.0256 9.95898 14.9025L12 12.8717L14.0308 14.9025C14.1539 15.0256 14.3077 15.0871 14.4615 15.0871C14.6154 15.0871 14.7795 15.0256 14.8923 14.9025C15.1282 14.6666 15.1282 14.2768 14.8923 14.0307L12.8718 11.9999L14.9026 9.96915C15.1385 9.73325 15.1385 9.34351 14.8923 9.10761Z" fill="#242424"/>
</svg>
