<svg width="48" height="48" viewBox="0 0 48 48" fill="none" xmlns="http://www.w3.org/2000/svg">
<rect width="48" height="48" rx="8" fill="white"/>
<path fill-rule="evenodd" clip-rule="evenodd" d="M11.5 11.5V22.5H20.5V11.5H11.5ZM22.6451 9.86225C22.284 9.34124 21.6819 9 21 9H11C9.89543 9 9 9.89543 9 11V23C9 23.6819 9.34124 24.284 9.86225 24.6451C10.1852 24.8689 10.5773 25 11 25H21C21.4227 25 21.8148 24.8689 22.1377 24.6451C22.2979 24.5341 22.441 24.4004 22.5625 24.2486C22.8363 23.9064 23 23.4723 23 23V11C23 10.5773 22.8689 10.1852 22.6451 9.86225ZM25.4375 23.7514C25.1637 24.0936 25 24.5277 25 25V37C25 37.4227 25.1311 37.8148 25.3549 38.1377C25.716 38.6588 26.3181 39 27 39H37C38.1046 39 39 38.1046 39 37V25C39 24.3181 38.6588 23.716 38.1377 23.3549C37.8148 23.1311 37.4227 23 37 23H27C26.5773 23 26.1852 23.1311 25.8623 23.3549C25.7021 23.4659 25.559 23.5996 25.4375 23.7514ZM25.3549 9.86225C25.1311 10.1852 25 10.5773 25 11V19C25 19.5072 25.1888 19.9703 25.5 20.3229C25.6071 20.4443 25.7288 20.5526 25.8623 20.6451C26.1852 20.8689 26.5773 21 27 21H37C37.4227 21 37.8148 20.8689 38.1377 20.6451C38.6588 20.284 39 19.6819 39 19V11C39 9.89543 38.1046 9 37 9H27C26.3181 9 25.716 9.34124 25.3549 9.86225ZM22.6451 38.1377C22.8689 37.8148 23 37.4227 23 37V29C23 28.4928 22.8112 28.0297 22.5 27.6771C22.3929 27.5557 22.2712 27.4474 22.1377 27.3549C21.8148 27.1311 21.4227 27 21 27H11C10.5773 27 10.1852 27.1311 9.86225 27.3549C9.34124 27.716 9 28.3181 9 29V37C9 38.1046 9.89543 39 11 39H21C21.6819 39 22.284 38.6588 22.6451 38.1377ZM27.5 11.5V18.5H36.5V11.5H27.5ZM11.5 29.5V36.5H20.5V29.5H11.5ZM27.5 25.5V36.5H36.5V25.5H27.5Z" fill="#242424"/>
</svg>
