<svg width="40" height="40" viewBox="0 0 40 40" fill="none" xmlns="http://www.w3.org/2000/svg">
<rect x="1" y="1" width="38" height="38" rx="3" fill="#F21B5B"/>
<path d="M16.9461 16.5427C16.9325 16.2783 17.1322 16.0527 17.3922 16.0388C17.6522 16.025 17.874 16.2281 17.8877 16.4925L18.2824 24.1532C18.2961 24.4177 18.0963 24.6433 17.8363 24.6571C17.5763 24.671 17.3545 24.4679 17.3409 24.2034L16.9461 16.5427Z" fill="white"/>
<path d="M22.1065 16.0388C21.8465 16.0249 21.6247 16.2281 21.611 16.4925L21.2163 24.1532C21.2027 24.4176 21.4024 24.6432 21.6624 24.6571C21.9224 24.671 22.1442 24.4678 22.1578 24.2034L22.5526 16.5427C22.5662 16.2782 22.3665 16.0526 22.1065 16.0388Z" fill="white"/>
<path fill-rule="evenodd" clip-rule="evenodd" d="M21.8714 12.6575V11.9384C21.8714 11.144 21.2382 10.5 20.4571 10.5H19.0429C18.2618 10.5 17.6286 11.144 17.6286 11.9384V12.6575H12.0893C11.7638 12.6575 11.5 12.9259 11.5 13.2568C11.5 13.5878 11.7638 13.8562 12.0893 13.8562H12.8116C12.697 14.1436 12.6493 14.4643 12.6873 14.7968L14.0026 26.3036C14.1131 27.2706 14.9185 28 15.8757 28H23.3638C24.3073 28 25.1056 27.2908 25.2324 26.3399L26.7669 14.8331C26.8129 14.488 26.7661 14.1543 26.6471 13.8562H27.4107C27.7362 13.8562 28 13.5878 28 13.2568C28 12.9259 27.7362 12.6575 27.4107 12.6575H21.8714ZM20.4571 11.6986H19.0429C18.9127 11.6986 18.8071 11.806 18.8071 11.9384V12.6575H20.6929V11.9384C20.6929 11.806 20.5873 11.6986 20.4571 11.6986ZM24.8983 13.8562H14.5604C14.1375 13.8562 13.8091 14.2312 13.858 14.6584L15.1733 26.1652C15.2147 26.5279 15.5167 26.8014 15.8757 26.8014H23.3638C23.7176 26.8014 24.017 26.5354 24.0645 26.1788L25.599 14.672C25.6566 14.2403 25.3266 13.8562 24.8983 13.8562Z" fill="white"/>
<rect x="1" y="1" width="38" height="38" rx="3" stroke="#F21B5B" stroke-width="2"/>
</svg>
