<svg width="32" height="32" viewBox="0 0 32 32" fill="none" xmlns="http://www.w3.org/2000/svg">
<rect x="1" y="1" width="30" height="30" rx="3" fill="#F21B5B"/>
<path d="M13.9642 13.6951C13.9551 13.5188 14.0883 13.3684 14.2616 13.3592C14.435 13.35 14.5829 13.4854 14.5919 13.6617L14.8551 18.7688C14.8642 18.9451 14.731 19.0955 14.5577 19.1047C14.3844 19.114 14.2365 18.9786 14.2274 18.8023L13.9642 13.6951Z" fill="white"/>
<path d="M17.4045 13.3592C17.2312 13.3499 17.0833 13.4854 17.0742 13.6617L16.811 18.7688C16.8019 18.9451 16.9351 19.0955 17.1084 19.1047C17.2818 19.114 17.4296 18.9785 17.4387 18.8023L17.7019 13.6951C17.711 13.5188 17.5778 13.3684 17.4045 13.3592Z" fill="white"/>
<path fill-rule="evenodd" clip-rule="evenodd" d="M17.2478 11.105V10.6256C17.2478 10.096 16.8257 9.66666 16.3049 9.66666H15.3621C14.8413 9.66666 14.4192 10.096 14.4192 10.6256V11.105H10.7264C10.5094 11.105 10.3335 11.2839 10.3335 11.5046C10.3335 11.7252 10.5094 11.9041 10.7264 11.9041H11.2079C11.1315 12.0957 11.0997 12.3095 11.125 12.5312L12.0019 20.2024C12.0756 20.8471 12.6125 21.3333 13.2506 21.3333H18.2427C18.8717 21.3333 19.4039 20.8605 19.4884 20.2266L20.5114 12.5554C20.5421 12.3253 20.5109 12.1029 20.4316 11.9041H20.9406C21.1576 11.9041 21.3335 11.7252 21.3335 11.5046C21.3335 11.2839 21.1576 11.105 20.9406 11.105H17.2478ZM16.3049 10.4657H15.3621C15.2753 10.4657 15.2049 10.5373 15.2049 10.6256V11.105H16.4621V10.6256C16.4621 10.5373 16.3917 10.4657 16.3049 10.4657ZM19.2657 11.9041H12.3738C12.0918 11.9041 11.8729 12.1541 11.9055 12.4389L12.7823 20.1101C12.81 20.3519 13.0113 20.5342 13.2506 20.5342H18.2427C18.4786 20.5342 18.6782 20.3569 18.7099 20.1192L19.7329 12.448C19.7712 12.1602 19.5512 11.9041 19.2657 11.9041Z" fill="white"/>
<rect x="1" y="1" width="30" height="30" rx="3" stroke="#F21B5B" stroke-width="2"/>
</svg>
