<svg width="24" height="24" viewBox="0 0 24 24" fill="none" xmlns="http://www.w3.org/2000/svg">
<path d="M8.9461 8.54271C8.93248 8.27828 9.13221 8.05268 9.39221 8.03882C9.65222 8.02496 9.87404 8.22809 9.88767 8.49252L10.2824 16.1532C10.2961 16.4177 10.0963 16.6433 9.83632 16.6571C9.57631 16.671 9.35449 16.4679 9.34086 16.2034L8.9461 8.54271Z" fill="#616293"/>
<path d="M14.1065 8.03879C13.8465 8.02493 13.6247 8.22806 13.611 8.49249L13.2163 16.1532C13.2027 16.4176 13.4024 16.6432 13.6624 16.6571C13.9224 16.671 14.1442 16.4678 14.1578 16.2034L14.5526 8.54268C14.5662 8.27825 14.3665 8.05265 14.1065 8.03879Z" fill="#616293"/>
<path fill-rule="evenodd" clip-rule="evenodd" d="M13.8714 4.65753V3.93836C13.8714 3.14397 13.2382 2.5 12.4571 2.5H11.0429C10.2618 2.5 9.62857 3.14397 9.62857 3.93836V4.65753H4.08929C3.76383 4.65753 3.5 4.92586 3.5 5.25685C3.5 5.58784 3.76383 5.85616 4.08929 5.85616H4.8116C4.69696 6.14357 4.64927 6.46425 4.68729 6.7968L6.00257 18.3036C6.1131 19.2706 6.91846 20 7.87567 20H15.3638C16.3073 20 17.1056 19.2908 17.2324 18.3399L18.7669 6.83309C18.8129 6.488 18.7661 6.1543 18.6471 5.85616H19.4107C19.7362 5.85616 20 5.58784 20 5.25685C20 4.92586 19.7362 4.65753 19.4107 4.65753H13.8714ZM12.4571 3.69863H11.0429C10.9127 3.69863 10.8071 3.80596 10.8071 3.93836V4.65753H12.6929V3.93836C12.6929 3.80596 12.5873 3.69863 12.4571 3.69863ZM16.8983 5.85616H6.56039C6.13748 5.85616 5.80914 6.23117 5.85797 6.65839L7.17326 18.1652C7.21471 18.5279 7.51672 18.8014 7.87567 18.8014H15.3638C15.7176 18.8014 16.017 18.5354 16.0645 18.1788L17.599 6.672C17.6566 6.24035 17.3266 5.85616 16.8983 5.85616Z" fill="#616293"/>
</svg>
