<svg width="23" height="23" viewBox="0 0 23 23" fill="none" xmlns="http://www.w3.org/2000/svg">
<path fill-rule="evenodd" clip-rule="evenodd" d="M12.5 2H10.25V4.25H12.5V2ZM10.25 0.5C9.42157 0.5 8.75 1.17157 8.75 2V4.25C8.75 5.07843 9.42157 5.75 10.25 5.75H12.5C13.3284 5.75 14 5.07843 14 4.25V2C14 1.17157 13.3284 0.5 12.5 0.5H10.25Z" fill="#2D5BD0"/>
<path fill-rule="evenodd" clip-rule="evenodd" d="M12.5 18.5H10.25V20.75H12.5V18.5ZM10.25 17C9.42157 17 8.75 17.6716 8.75 18.5V20.75C8.75 21.5784 9.42157 22.25 10.25 22.25H12.5C13.3284 22.25 14 21.5784 14 20.75V18.5C14 17.6716 13.3284 17 12.5 17H10.25Z" fill="#2D5BD0"/>
<path fill-rule="evenodd" clip-rule="evenodd" d="M20.75 10.25H18.5V12.5H20.75V10.25ZM18.5 8.75C17.6716 8.75 17 9.42157 17 10.25V12.5C17 13.3284 17.6716 14 18.5 14H20.75C21.5784 14 22.25 13.3284 22.25 12.5V10.25C22.25 9.42157 21.5784 8.75 20.75 8.75H18.5Z" fill="#2D5BD0"/>
<path fill-rule="evenodd" clip-rule="evenodd" d="M20.75 2H18.5V4.25H20.75V2ZM18.5 0.5C17.6716 0.5 17 1.17157 17 2V4.25C17 5.07843 17.6716 5.75 18.5 5.75H20.75C21.5784 5.75 22.25 5.07843 22.25 4.25V2C22.25 1.17157 21.5784 0.5 20.75 0.5H18.5Z" fill="#2D5BD0"/>
<path fill-rule="evenodd" clip-rule="evenodd" d="M20.75 18.5H18.5V20.75H20.75V18.5ZM18.5 17C17.6716 17 17 17.6716 17 18.5V20.75C17 21.5784 17.6716 22.25 18.5 22.25H20.75C21.5784 22.25 22.25 21.5784 22.25 20.75V18.5C22.25 17.6716 21.5784 17 20.75 17H18.5Z" fill="#2D5BD0"/>
<path fill-rule="evenodd" clip-rule="evenodd" d="M4.25 10.25H2L2 12.5H4.25V10.25ZM2 8.75C1.17157 8.75 0.5 9.42157 0.5 10.25V12.5C0.5 13.3284 1.17157 14 2 14H4.25C5.07843 14 5.75 13.3284 5.75 12.5V10.25C5.75 9.42157 5.07843 8.75 4.25 8.75H2Z" fill="#2D5BD0"/>
<path fill-rule="evenodd" clip-rule="evenodd" d="M4.25 2H2L2 4.25H4.25V2ZM2 0.5C1.17157 0.5 0.5 1.17157 0.5 2V4.25C0.5 5.07843 1.17157 5.75 2 5.75H4.25C5.07843 5.75 5.75 5.07843 5.75 4.25V2C5.75 1.17157 5.07843 0.5 4.25 0.5H2Z" fill="#2D5BD0"/>
<path fill-rule="evenodd" clip-rule="evenodd" d="M4.25 18.5H2L2 20.75H4.25V18.5ZM2 17C1.17157 17 0.5 17.6716 0.5 18.5V20.75C0.5 21.5784 1.17157 22.25 2 22.25H4.25C5.07843 22.25 5.75 21.5784 5.75 20.75V18.5C5.75 17.6716 5.07843 17 4.25 17H2Z" fill="#2D5BD0"/>
<path fill-rule="evenodd" clip-rule="evenodd" d="M12.5 10.25H10.25V12.5H12.5V10.25ZM10.25 8.75C9.42157 8.75 8.75 9.42157 8.75 10.25V12.5C8.75 13.3284 9.42157 14 10.25 14H12.5C13.3284 14 14 13.3284 14 12.5V10.25C14 9.42157 13.3284 8.75 12.5 8.75H10.25Z" fill="#2D5BD0"/>
</svg>
