<svg width="124" height="30" viewBox="0 0 124 30" fill="none" xmlns="http://www.w3.org/2000/svg">
<path d="M68.9839 23.2397L61.5321 0.416666H54.5748L46.9581 23.2397H51.8381L53.5527 17.9312H61.664L63.3456 23.2397H68.9839ZM60.5758 14.1443H54.6408L55.7618 10.7293C56.4543 8.56534 57.0807 6.57044 57.6413 4.50791H57.7072C58.2348 6.53663 58.8283 8.63296 59.4877 10.7293L60.5758 14.1443Z" fill="#48484A"/>
<path d="M83.3036 14.5501C83.3036 18.1679 81.7209 19.8923 79.0831 19.8923C78.2258 19.8923 77.4014 19.6895 76.676 19.3513V10.6617C77.6323 10.0869 78.5555 9.5797 79.7425 9.5797C81.7868 9.5797 83.3036 11.135 83.3036 14.5501ZM88.5132 14.1443C88.5132 8.70059 86.0073 5.25177 81.8857 5.25177C79.8085 5.25177 78.1598 6.23232 76.4782 7.3143H76.4123L76.2144 5.69133H71.7301V30.0021L76.676 29.4949V22.8002C77.6982 23.3073 79.0501 23.6793 80.5339 23.6793C85.7106 23.6793 88.5132 20.0276 88.5132 14.1443Z" fill="#48484A"/>
<path d="M103.264 14.5501C103.264 18.1679 101.681 19.8923 99.0431 19.8923C98.1858 19.8923 97.3615 19.6895 96.6361 19.3513V10.6617C97.5923 10.0869 98.5156 9.5797 99.7026 9.5797C101.747 9.5797 103.264 11.135 103.264 14.5501ZM108.473 14.1443C108.473 8.70059 105.967 5.25177 101.846 5.25177C99.7685 5.25177 98.1199 6.23232 96.4383 7.3143H96.3723L96.1745 5.69133H91.6902V30.0021L96.6361 29.4949V22.8002C97.6583 23.3073 99.0102 23.6793 100.494 23.6793C105.671 23.6793 108.473 20.0276 108.473 14.1443Z" fill="#48484A"/>
<path d="M123.52 18.1679C123.52 11.7099 115.277 13.0623 115.277 10.425C115.277 9.37683 116.168 8.83584 118.047 8.83584C119.597 8.83584 121.212 9.07252 122.465 9.47826L122.3 6.43519C120.784 5.52227 118.97 5.25177 117.355 5.25177C112.87 5.25177 110.397 7.3143 110.397 10.7631C110.397 17.1198 118.739 15.632 118.739 18.4046C118.739 19.7233 117.552 20.129 115.607 20.129C113.761 20.129 112.046 19.8923 110.628 19.4866L110.859 22.4959C112.639 23.4088 114.684 23.6793 116.563 23.6793C120.982 23.6793 123.52 21.752 123.52 18.1679Z" fill="#48484A"/>
<path fill-rule="evenodd" clip-rule="evenodd" d="M9.58731 0.416666C17.7975 0.416666 20.798 4.81222 20.798 11.6422C20.798 18.1679 17.5337 23.2397 9.58731 23.2397H0.717651V0.416666H9.58731ZM8.53218 19.6895C12.8846 19.6895 15.0937 17.1536 15.0937 11.676C15.0937 6.29994 12.9835 4.00073 8.53218 4.00073H6.05923V19.6895H8.53218Z" fill="#48484A"/>
<path fill-rule="evenodd" clip-rule="evenodd" d="M33.5463 0.416666C37.7669 0.416666 41.6247 2.34395 41.6247 7.65242C41.6247 12.5213 38.2614 14.9558 33.5134 14.9558H24.4129V0.416666H33.5463ZM31.6669 11.5746C34.2717 11.5746 36.0523 10.3912 36.0523 7.65242C36.0523 4.81222 34.2058 3.76405 31.7328 3.76405H29.7545V11.5746H31.6669Z" fill="#48484A"/>
<path d="M24.4129 23.2397V17.8419H29.7545V23.2397H24.4129Z" fill="#48484A"/>
</svg>
