<svg width="16" height="16" viewBox="0 0 16 16" fill="none" xmlns="http://www.w3.org/2000/svg">
<path fill-rule="evenodd" clip-rule="evenodd" d="M11.3332 3.33331C11.3332 3.8856 10.8855 4.33331 10.3332 4.33331C9.78089 4.33331 9.33317 3.8856 9.33317 3.33331C9.33317 2.78103 9.78089 2.33331 10.3332 2.33331C10.8855 2.33331 11.3332 2.78103 11.3332 3.33331ZM10.3332 8.99998C10.8855 8.99998 11.3332 8.55226 11.3332 7.99998C11.3332 7.4477 10.8855 6.99998 10.3332 6.99998C9.78089 6.99998 9.33317 7.4477 9.33317 7.99998C9.33317 8.55226 9.78089 8.99998 10.3332 8.99998ZM10.3332 13.6666C10.8855 13.6666 11.3332 13.2189 11.3332 12.6666C11.3332 12.1144 10.8855 11.6666 10.3332 11.6666C9.78089 11.6666 9.33317 12.1144 9.33317 12.6666C9.33317 13.2189 9.78089 13.6666 10.3332 13.6666ZM5.6665 8.99998C6.21879 8.99998 6.6665 8.55226 6.6665 7.99998C6.6665 7.4477 6.21879 6.99998 5.6665 6.99998C5.11422 6.99998 4.6665 7.4477 4.6665 7.99998C4.6665 8.55226 5.11422 8.99998 5.6665 8.99998ZM6.6665 12.6666C6.6665 13.2189 6.21879 13.6666 5.6665 13.6666C5.11422 13.6666 4.6665 13.2189 4.6665 12.6666C4.6665 12.1144 5.11422 11.6666 5.6665 11.6666C6.21879 11.6666 6.6665 12.1144 6.6665 12.6666ZM5.6665 4.33331C6.21879 4.33331 6.6665 3.8856 6.6665 3.33331C6.6665 2.78103 6.21879 2.33331 5.6665 2.33331C5.11422 2.33331 4.6665 2.78103 4.6665 3.33331C4.6665 3.8856 5.11422 4.33331 5.6665 4.33331Z" fill="#616293"/>
</svg>
