<svg width="24" height="24" viewBox="0 0 24 24" fill="none" xmlns="http://www.w3.org/2000/svg">
<path fill-rule="evenodd" clip-rule="evenodd" d="M4 16.0771L4 19.9999L7.9229 19.9999C8.42864 19.9999 8.91367 19.799 9.27129 19.4414L19.4415 9.27123C20.1862 8.52653 20.1862 7.31913 19.4415 6.57444L17.4255 4.55851C16.6808 3.81383 15.4734 3.81383 14.7287 4.55852L4.55853 14.7287C4.20091 15.0863 4 15.5713 4 16.0771ZM7.9229 18.7287L5.27127 18.7287L5.27128 16.0771C5.27128 15.9085 5.33824 15.7468 5.45745 15.6276L12.899 8.18614L15.8138 11.101L8.37236 18.5425C8.25316 18.6617 8.09148 18.7287 7.9229 18.7287ZM16.7128 10.2021L18.5426 8.3723C18.7908 8.12407 18.7908 7.72161 18.5425 7.47337L16.5266 5.45744C16.2784 5.20922 15.8759 5.20922 15.6277 5.45745L13.7979 7.28722L16.7128 10.2021Z" fill="#616293"/>
</svg>
