<svg width="24" height="24" viewBox="0 0 24 24" fill="none" xmlns="http://www.w3.org/2000/svg">
<path fill-rule="evenodd" clip-rule="evenodd" d="M13.143 11.7857C13.143 11.1545 12.6313 10.6429 12.0002 10.6429C11.369 10.6429 10.8573 11.1545 10.8573 11.7857C10.8573 12.4169 11.369 12.9286 12.0002 12.9286C12.6313 12.9286 13.143 12.4169 13.143 11.7857ZM12.0002 9.5C13.2625 9.5 14.2859 10.5233 14.2859 11.7857C14.2859 13.0481 13.2625 14.0714 12.0002 14.0714C10.7378 14.0714 9.71444 13.0481 9.71444 11.7857C9.71444 10.5233 10.7378 9.5 12.0002 9.5Z" fill="#616293"/>
<path fill-rule="evenodd" clip-rule="evenodd" d="M18.8572 11.7857C18.8572 11.1545 18.3455 10.6429 17.7143 10.6429C17.0832 10.6429 16.5715 11.1545 16.5715 11.7857C16.5715 12.4169 17.0832 12.9286 17.7143 12.9286C18.3455 12.9286 18.8572 12.4169 18.8572 11.7857ZM17.7143 9.5C18.9767 9.5 20.0001 10.5233 20.0001 11.7857C20.0001 13.0481 18.9767 14.0714 17.7143 14.0714C16.452 14.0714 15.4286 13.0481 15.4286 11.7857C15.4286 10.5233 16.452 9.5 17.7143 9.5Z" fill="#616293"/>
<path fill-rule="evenodd" clip-rule="evenodd" d="M7.42857 11.7857C7.42857 11.1545 6.9169 10.6429 6.28571 10.6429C5.65453 10.6429 5.14286 11.1545 5.14286 11.7857C5.14286 12.4169 5.65453 12.9286 6.28571 12.9286C6.9169 12.9286 7.42857 12.4169 7.42857 11.7857ZM6.28571 9.5C7.54808 9.5 8.57143 10.5233 8.57143 11.7857C8.57143 13.0481 7.54808 14.0714 6.28571 14.0714C5.02335 14.0714 4 13.0481 4 11.7857C4 10.5233 5.02335 9.5 6.28571 9.5Z" fill="#616293"/>
</svg>
