<svg width="26" height="26" viewBox="0 0 26 26" fill="none" xmlns="http://www.w3.org/2000/svg">
<path d="M0.5 4.25C0.5 3.78977 0.873096 3.41667 1.33333 3.41667H10.5C10.9602 3.41667 11.3333 3.78977 11.3333 4.25C11.3333 4.71024 10.9602 5.08334 10.5 5.08334H1.33333C0.873096 5.08334 0.5 4.71024 0.5 4.25Z" fill="#242424"/>
<path d="M13 4.25C13 3.78977 13.3731 3.41667 13.8333 3.41667H24.6667C25.1269 3.41667 25.5 3.78977 25.5 4.25C25.5 4.71024 25.1269 5.08334 24.6667 5.08334H13.8333C13.3731 5.08334 13 4.71024 13 4.25Z" fill="#242424"/>
<path d="M10.5 7.58334C10.0398 7.58334 9.66667 7.21024 9.66667 6.75V1.75001C9.66667 1.28977 10.0398 0.916672 10.5 0.916672C10.9602 0.916672 11.3333 1.28977 11.3333 1.75V6.75C11.3333 7.21024 10.9602 7.58334 10.5 7.58334Z" fill="#242424"/>
<path d="M7.16667 25.0833C6.70643 25.0833 6.33333 24.7102 6.33333 24.25V19.25C6.33333 18.7898 6.70643 18.4167 7.16667 18.4167C7.6269 18.4167 8 18.7898 8 19.25V24.25C8 24.7102 7.6269 25.0833 7.16667 25.0833Z" fill="#242424"/>
<path d="M18.8333 16.3333C18.3731 16.3333 18 15.9602 18 15.5V10.5C18 10.0398 18.3731 9.66667 18.8333 9.66667C19.2936 9.66667 19.6667 10.0398 19.6667 10.5V15.5C19.6667 15.9602 19.2936 16.3333 18.8333 16.3333Z" fill="#242424"/>
<path d="M18 13C18 12.5398 18.3731 12.1667 18.8333 12.1667H24.6667C25.1269 12.1667 25.5 12.5398 25.5 13C25.5 13.4602 25.1269 13.8333 24.6667 13.8333H18.8333C18.3731 13.8333 18 13.4602 18 13Z" fill="#242424"/>
<path d="M0.5 13C0.5 12.5398 0.873096 12.1667 1.33333 12.1667H15.5C15.9602 12.1667 16.3333 12.5398 16.3333 13C16.3333 13.4602 15.9602 13.8333 15.5 13.8333H1.33333C0.873096 13.8333 0.5 13.4602 0.5 13Z" fill="#242424"/>
<path d="M0.5 21.75C0.5 21.2898 0.873096 20.9167 1.33333 20.9167H7.16667C7.6269 20.9167 8 21.2898 8 21.75C8 22.2102 7.6269 22.5833 7.16667 22.5833H1.33333C0.873096 22.5833 0.5 22.2102 0.5 21.75Z" fill="#242424"/>
<path d="M9.66667 21.75C9.66667 21.2898 10.0398 20.9167 10.5 20.9167H24.6667C25.1269 20.9167 25.5 21.2898 25.5 21.75C25.5 22.2102 25.1269 22.5833 24.6667 22.5833H10.5C10.0398 22.5833 9.66667 22.2102 9.66667 21.75Z" fill="#242424"/>
</svg>
