<svg width="36" height="36" viewBox="0 0 36 36" fill="none" xmlns="http://www.w3.org/2000/svg">
<path d="M17.8006 21.0639L17.4113 20.0406H14.0967L13.7074 21.0862C13.5553 21.494 13.4256 21.7702 13.3181 21.9148C13.2105 22.0557 13.0344 22.1262 12.7897 22.1262C12.5821 22.1262 12.3986 22.0501 12.2391 21.8981C12.0797 21.7461 12 21.5737 12 21.3809C12 21.2697 12.0185 21.1548 12.0556 21.0361C12.0927 20.9175 12.1539 20.7525 12.2391 20.5411L14.3247 15.2466C14.384 15.0946 14.4544 14.913 14.536 14.7016C14.6213 14.4866 14.7103 14.3086 14.803 14.1677C14.8994 14.0268 15.0236 13.9138 15.1756 13.8285C15.3313 13.7395 15.5222 13.695 15.7484 13.695C15.9783 13.695 16.1692 13.7395 16.3212 13.8285C16.477 13.9138 16.6012 14.025 16.6939 14.1622C16.7903 14.2993 16.87 14.4477 16.933 14.6071C16.9997 14.7628 17.0832 14.9723 17.1833 15.2355L19.3133 20.4966C19.4801 20.8971 19.5636 21.1881 19.5636 21.3698C19.5636 21.5589 19.4838 21.7331 19.3244 21.8926C19.1687 22.0483 18.9796 22.1262 18.7572 22.1262C18.6274 22.1262 18.5162 22.1021 18.4235 22.0539C18.3308 22.0094 18.2529 21.9482 18.1899 21.8703C18.1269 21.7888 18.0583 21.6664 17.9841 21.5033C17.9137 21.3364 17.8525 21.19 17.8006 21.0639ZM14.5305 18.8004H16.9664L15.7373 15.4357L14.5305 18.8004Z" fill="#616293"/>
<path d="M20.8483 21.1195V14.6961C20.8483 14.3624 20.9243 14.1121 21.0763 13.9453C21.2283 13.7784 21.4248 13.695 21.6658 13.695C21.9142 13.695 22.1144 13.7784 22.2664 13.9453C22.4221 14.1084 22.5 14.3587 22.5 14.6961V21.1195C22.5 21.4569 22.4221 21.709 22.2664 21.8759C22.1144 22.0427 21.9142 22.1262 21.6658 22.1262C21.4285 22.1262 21.232 22.0427 21.0763 21.8759C20.9243 21.7053 20.8483 21.4532 20.8483 21.1195Z" fill="#616293"/>
<path fill-rule="evenodd" clip-rule="evenodd" d="M24.375 9.75H10.875C10.2537 9.75 9.75 10.2537 9.75 10.875V24.375C9.75 24.9963 10.2537 25.5 10.875 25.5H24.375C24.9963 25.5 25.5 24.9963 25.5 24.375V10.875C25.5 10.2537 24.9963 9.75 24.375 9.75ZM10.875 7.875C9.21815 7.875 7.875 9.21815 7.875 10.875V24.375C7.875 26.0319 9.21815 27.375 10.875 27.375H24.375C26.0319 27.375 27.375 26.0319 27.375 24.375V10.875C27.375 9.21815 26.0319 7.875 24.375 7.875H10.875Z" fill="#616293"/>
<path d="M11.25 6C11.25 5.58579 11.5858 5.25 12 5.25C12.4142 5.25 12.75 5.58579 12.75 6V8.25H11.25V6Z" fill="#616293"/>
<path d="M15 4.5C15 4.08579 15.3358 3.75 15.75 3.75C16.1642 3.75 16.5 4.08579 16.5 4.5V8.25H15V4.5Z" fill="#616293"/>
<path d="M18.75 4.5C18.75 4.08579 19.0858 3.75 19.5 3.75C19.9142 3.75 20.25 4.08579 20.25 4.5V8.25H18.75V4.5Z" fill="#616293"/>
<path d="M22.5 6C22.5 5.58579 22.8358 5.25 23.25 5.25C23.6642 5.25 24 5.58579 24 6V8.25H22.5V6Z" fill="#616293"/>
<path d="M24 29.25C24 29.6642 23.6642 30 23.25 30C22.8358 30 22.5 29.6642 22.5 29.25V27H24V29.25Z" fill="#616293"/>
<path d="M20.25 30.75C20.25 31.1642 19.9142 31.5 19.5 31.5C19.0858 31.5 18.75 31.1642 18.75 30.75V27H20.25V30.75Z" fill="#616293"/>
<path d="M16.5 30.75C16.5 31.1642 16.1642 31.5 15.75 31.5C15.3358 31.5 15 31.1642 15 30.75V27L16.5 27V30.75Z" fill="#616293"/>
<path d="M12.75 29.25C12.75 29.6642 12.4142 30 12 30C11.5858 30 11.25 29.6642 11.25 29.25V27H12.75V29.25Z" fill="#616293"/>
<path d="M29.25 11.25C29.6642 11.25 30 11.5858 30 12C30 12.4142 29.6642 12.75 29.25 12.75H27V11.25H29.25Z" fill="#616293"/>
<path d="M30.75 15C31.1642 15 31.5 15.3358 31.5 15.75C31.5 16.1642 31.1642 16.5 30.75 16.5H27V15H30.75Z" fill="#616293"/>
<path d="M30.75 18.75C31.1642 18.75 31.5 19.0858 31.5 19.5C31.5 19.9142 31.1642 20.25 30.75 20.25H27V18.75H30.75Z" fill="#616293"/>
<path d="M29.25 22.5C29.6642 22.5 30 22.8358 30 23.25C30 23.6642 29.6642 24 29.25 24H27V22.5H29.25Z" fill="#616293"/>
<path d="M6 24C5.58579 24 5.25 23.6642 5.25 23.25C5.25 22.8358 5.58579 22.5 6 22.5H8.25V24H6Z" fill="#616293"/>
<path d="M4.5 20.25C4.08579 20.25 3.75 19.9142 3.75 19.5C3.75 19.0858 4.08579 18.75 4.5 18.75H8.25V20.25H4.5Z" fill="#616293"/>
<path d="M4.5 16.5C4.08579 16.5 3.75 16.1642 3.75 15.75C3.75 15.3358 4.08579 15 4.5 15H8.25V16.5H4.5Z" fill="#616293"/>
<path d="M6 12.75C5.58579 12.75 5.25 12.4142 5.25 12C5.25 11.5858 5.58579 11.25 6 11.25H8.25V12.75H6Z" fill="#616293"/>
</svg>
