<svg width="48" height="48" viewBox="0 0 48 48" fill="none" xmlns="http://www.w3.org/2000/svg">
<path fill-rule="evenodd" clip-rule="evenodd" d="M30.4454 7.28315L27.4474 7.62088H27.3965C27.2738 7.62763 27.1535 7.58536 27.0619 7.50337C26.9704 7.42138 26.9152 7.30639 26.9084 7.18369C26.9017 7.06098 26.944 6.94063 27.026 6.84909C27.108 6.75756 27.2229 6.70234 27.3456 6.69559L30.2418 6.37174L30.1585 6.00625C30.1585 4.66458 19.3511 4.66458 19.3511 6.00625L18.0372 11.9004H31.4539L30.4454 7.28315ZM29.6357 9.36968L25.5136 9.86009H25.4627C25.34 9.86745 25.2194 9.82577 25.1274 9.74421C25.0354 9.66265 24.9796 9.5479 24.9723 9.4252C24.9649 9.3025 25.0066 9.1819 25.0882 9.08993C25.1697 8.99796 25.2845 8.94216 25.4072 8.93479L29.5293 8.47215C29.5901 8.46516 29.6516 8.47021 29.7104 8.48701C29.7692 8.5038 29.8242 8.53202 29.8721 8.57004C29.92 8.60806 29.9599 8.65514 29.9896 8.70859C30.0193 8.76205 30.0382 8.82084 30.0452 8.88159C30.0522 8.94235 30.0471 9.00388 30.0303 9.06269C30.0135 9.12149 29.9853 9.17641 29.9473 9.22432C29.9093 9.27222 29.8622 9.31216 29.8087 9.34186C29.7553 9.37157 29.6965 9.39045 29.6357 9.39744V9.36968ZM28.5025 25.0811C28.6175 25.6715 28.9483 26.1979 29.4304 26.5576C29.9124 26.9174 30.5112 27.0847 31.1099 27.0269C31.7086 26.9691 32.2643 26.6904 32.6687 26.2452C33.0731 25.7999 33.2971 25.2199 33.2971 24.6185C33.2971 24.017 33.0731 23.437 32.6687 22.9918C32.2643 22.5465 31.7086 22.2678 31.1099 22.21C30.5112 22.1522 29.9124 22.3195 29.4304 22.6793C28.9483 23.039 28.6175 23.5654 28.5025 24.1558H26.2818C26.1591 24.1558 26.0414 24.2046 25.9547 24.2913C25.8679 24.3781 25.8192 24.4958 25.8192 24.6185C25.8192 24.7412 25.8679 24.8588 25.9547 24.9456C26.0414 25.0324 26.1591 25.0811 26.2818 25.0811H28.5025ZM29.3716 32.8221C28.9826 33.0675 28.5318 33.1971 28.0719 33.1959C27.5138 33.1926 26.974 32.9963 26.544 32.6405C26.114 32.2847 25.8202 31.7912 25.7124 31.2436H23.0753V36.3095C22.787 35.8327 22.4193 35.4087 21.9881 35.0558C21.885 34.9739 21.756 34.9317 21.6244 34.9368C21.4929 34.9418 21.3675 34.9939 21.271 35.0835C21.1926 35.2328 21.1642 35.4032 21.19 35.5698C21.2159 35.7364 21.2945 35.8903 21.4144 36.0088C22.2384 36.6804 22.7622 37.6515 22.8706 38.709C22.9791 39.7664 22.6633 40.8237 21.9928 41.6485C21.9141 41.7456 21.8308 41.8335 21.7476 41.9214C21.1863 42.4387 20.491 42.7879 19.741 42.9294C18.9909 43.0708 18.2162 42.9989 17.5051 42.7216C16.7939 42.4444 16.1749 41.9731 15.7185 41.3613C15.2621 40.7495 14.9867 40.0219 14.9235 39.2612C13.8922 39.2359 12.9115 38.8086 12.1907 38.0705C11.4699 37.3324 11.066 36.3419 11.0651 35.3102C11.0403 34.5351 11.2838 33.7753 11.7544 33.1589C12.4237 33.6406 13.1972 33.9577 14.0121 34.0842H14.0861C14.2185 34.0932 14.349 34.0496 14.4494 33.963C14.5499 33.8764 14.6122 33.7538 14.6228 33.6216C14.6506 33.485 14.6241 33.3429 14.549 33.2255C14.4739 33.108 14.356 33.0244 14.2203 32.9924C13.5193 32.8798 12.8564 32.5981 12.2888 32.1716C11.7213 31.7451 11.2663 31.1866 10.9632 30.5446C10.6602 29.9026 10.5182 29.1964 10.5496 28.4871C10.581 27.7779 10.7848 27.087 11.1434 26.4742C11.502 25.8615 12.0045 25.3454 12.6075 24.9707C13.2105 24.596 13.8958 24.374 14.604 24.3238C15.3121 24.2736 16.0219 24.3968 16.6717 24.6828C17.3215 24.9687 17.8918 25.4088 18.3332 25.9648C18.4463 26.0576 18.5855 26.1128 18.7315 26.1228C18.8774 26.1327 19.0228 26.0969 19.1475 26.0203C19.2467 25.9322 19.3113 25.8118 19.33 25.6804C19.3486 25.5491 19.32 25.4154 19.2493 25.3032C18.453 24.2907 17.3116 23.6072 16.0431 23.3832C16.3929 22.9708 16.8313 22.6427 17.3255 22.4232C17.8198 22.2037 18.3571 22.0986 18.8977 22.1156C20.002 22.1156 21.061 22.5543 21.8419 23.3351C22.6228 24.116 23.0615 25.1751 23.0615 26.2794V30.309H25.6985C25.7863 29.8575 26.0007 29.4403 26.3167 29.1061C26.6327 28.7719 27.0372 28.5345 27.4831 28.4216C27.929 28.3087 28.3977 28.3249 28.8347 28.4685C29.2717 28.612 29.6588 28.8769 29.9509 29.2321C30.243 29.5874 30.428 30.0185 30.4843 30.475C30.5406 30.9314 30.4658 31.3945 30.2688 31.8101C30.0718 32.2257 29.7606 32.5767 29.3716 32.8221ZM23.0245 31.2389H23.0753V30.3183C22.548 30.2689 22.0218 30.4228 21.6041 30.7485C21.5277 30.8078 21.4718 30.8896 21.4443 30.9823C21.4167 31.075 21.4189 31.1741 21.4506 31.2655C21.4823 31.3569 21.5418 31.436 21.6208 31.4919C21.6997 31.5477 21.7942 31.5773 21.891 31.5767C21.9937 31.575 22.093 31.5392 22.1732 31.4749C22.4155 31.2885 22.7208 31.2039 23.0245 31.2389ZM19.2351 39.0756C19.3195 39.0098 19.3784 38.9168 19.4019 38.8124C19.4676 38.5103 19.4728 38.1982 19.4173 37.8941C19.3617 37.59 19.2464 37.2998 19.0781 37.0405C18.9117 36.7761 18.6948 36.5471 18.4397 36.3667C18.1846 36.1863 17.8965 36.0581 17.5917 35.9893C17.287 35.9205 16.9716 35.9126 16.6638 35.9659C16.356 36.0193 16.0617 36.1329 15.7979 36.3003C15.7466 36.3328 15.7022 36.3751 15.6672 36.4248C15.6322 36.4744 15.6073 36.5305 15.594 36.5898C15.5807 36.6491 15.5791 36.7104 15.5895 36.7703C15.5999 36.8302 15.622 36.8874 15.6545 36.9387C15.687 36.9901 15.7293 37.0345 15.779 37.0695C15.8287 37.1045 15.8847 37.1294 15.944 37.1427C16.0033 37.156 16.0647 37.1575 16.1245 37.1471C16.1844 37.1367 16.2416 37.1147 16.293 37.0821C16.5353 36.9296 16.8174 36.852 17.1036 36.8593C17.3899 36.8665 17.6677 36.9582 17.902 37.1228C18.1364 37.2874 18.3168 37.5177 18.4207 37.7845C18.5246 38.0514 18.5473 38.343 18.4859 38.6228C18.4597 38.7424 18.482 38.8675 18.5479 38.9707C18.6138 39.0739 18.718 39.1468 18.8375 39.1733C18.8713 39.1779 18.9055 39.1779 18.9393 39.1733C19.0462 39.1759 19.1508 39.1414 19.2351 39.0756ZM19.4276 29.6096C19.7307 29.324 19.9723 28.9795 20.1375 28.5972V28.6157C20.186 28.5029 20.1877 28.3753 20.1421 28.2613C20.0966 28.1472 20.0075 28.0558 19.8947 28.0074C19.7818 27.9589 19.6543 27.9573 19.5402 28.0028C19.4261 28.0484 19.3347 28.1374 19.2863 28.2503C19.1707 28.5167 19.0019 28.7567 18.7903 28.9556C18.5787 29.1544 18.3287 29.308 18.0556 29.4069C17.4794 29.6216 16.8421 29.6034 16.2791 29.356C15.72 29.1169 15.2732 28.6734 15.0299 28.1161C15.0108 28.0542 14.9789 27.997 14.9363 27.9482C14.8937 27.8994 14.8413 27.8601 14.7825 27.8328C14.7238 27.8056 14.6599 27.791 14.5951 27.79C14.5304 27.7889 14.4661 27.8015 14.4065 27.827C14.3469 27.8524 14.2933 27.89 14.2492 27.9374C14.205 27.9849 14.1713 28.041 14.1503 28.1023C14.1293 28.1636 14.1213 28.2286 14.127 28.2931C14.1327 28.3577 14.1519 28.4203 14.1833 28.477C14.5153 29.2553 15.1352 29.8753 15.9136 30.2072C16.2724 30.358 16.654 30.4472 17.0425 30.471C16.9396 30.8665 16.9952 31.2865 17.1974 31.6417C17.3996 31.9968 17.7324 32.259 18.125 32.3724C18.168 32.3785 18.2116 32.3785 18.2546 32.3724C18.3584 32.3763 18.4605 32.345 18.5445 32.2838C18.6284 32.2225 18.6892 32.1348 18.7172 32.0347C18.7502 31.9175 18.7356 31.7921 18.6768 31.6856C18.6179 31.5791 18.5194 31.5 18.4026 31.4656C18.3196 31.4436 18.2417 31.4054 18.1735 31.3532C18.1053 31.3011 18.048 31.2359 18.005 31.1616C17.9621 31.0872 17.9342 31.0051 17.923 30.9199C17.9119 30.8347 17.9176 30.7482 17.94 30.6653C17.9835 30.5116 18.0846 30.3807 18.2222 30.2998C18.2392 30.2951 18.2561 30.289 18.2731 30.2828C18.307 30.2705 18.3409 30.2581 18.3749 30.2581C18.7663 30.1159 19.1245 29.8952 19.4276 29.6096ZM36.7607 23.0455L32.5969 18.419C32.5361 18.3574 32.4591 18.3141 32.3749 18.2941V16.6887H32.8745C33.2635 16.6887 33.6365 16.5342 33.9116 16.2592C34.1866 15.9841 34.3411 15.6111 34.3411 15.2221V14.5976C34.3411 14.2086 34.1866 13.8356 33.9116 13.5605C33.6365 13.2855 33.2635 13.131 32.8745 13.131H17.0243C16.8309 13.1298 16.6392 13.1668 16.4602 13.24C16.2812 13.3131 16.1184 13.4209 15.9813 13.5573C15.8441 13.6936 15.7353 13.8556 15.661 14.0342C15.5867 14.2127 15.5485 14.4042 15.5485 14.5976V15.2407C15.5533 15.628 15.7113 15.9977 15.9878 16.269C16.2643 16.5403 16.6369 16.6912 17.0243 16.6887H17.4869V18.2617H17.399C17.3337 18.2612 17.269 18.2746 17.2092 18.3009C17.1494 18.3272 17.0958 18.3659 17.0521 18.4144L15.368 20.2927C15.323 20.3369 15.2875 20.3898 15.2637 20.4482C15.2398 20.5066 15.2282 20.5692 15.2295 20.6323C15.2307 20.6953 15.2449 20.7574 15.271 20.8148C15.2972 20.8722 15.3348 20.9236 15.3815 20.966C15.4282 21.0083 15.4832 21.0406 15.5428 21.0609C15.6025 21.0813 15.6658 21.0892 15.7286 21.0842C15.7915 21.0792 15.8527 21.0614 15.9084 21.0319C15.9641 21.0024 16.0133 20.9618 16.0527 20.9127L17.6026 19.187H32.0649L36.1038 23.6793C36.2364 23.7944 36.343 23.9365 36.4164 24.096C36.4898 24.2556 36.5283 24.429 36.5294 24.6046V32.9738C36.5241 33.893 36.3243 34.8007 35.9431 35.6371C35.562 36.4735 35.0081 37.2199 34.318 37.827C34.2272 37.9098 34.173 38.0253 34.1674 38.1481C34.1617 38.2708 34.2051 38.3908 34.2879 38.4816C34.3707 38.5724 34.4862 38.6266 34.609 38.6322C34.7318 38.6379 34.8517 38.5945 34.9425 38.5117C35.724 37.8116 36.351 36.9564 36.7836 36.0005C37.2161 35.0446 37.4447 34.0091 37.4547 32.96V24.6231C37.4538 24.3265 37.3916 24.0334 37.2722 23.7619C37.1528 23.4905 36.9787 23.2466 36.7607 23.0455ZM31.4727 18.2802H18.4307V16.6887H31.4727V18.2802ZM32.8015 32.1531C32.8559 32.1254 32.9152 32.1087 32.976 32.1041C33.0368 32.099 33.098 32.106 33.1561 32.1247C33.2141 32.1434 33.2679 32.1734 33.3144 32.2129C33.3608 32.2525 33.399 32.3008 33.4266 32.3552C33.4543 32.4096 33.471 32.4689 33.4756 32.5297L33.5821 33.9731C33.5989 34.3111 33.5478 34.649 33.4318 34.9669C33.3158 35.2847 33.1372 35.5761 32.9066 35.8237L30.3065 38.5996C30.5373 38.9596 30.6668 39.3751 30.6813 39.8025C30.6966 40.282 30.5694 40.7553 30.3156 41.1624C30.0618 41.5696 29.6929 41.8923 29.2556 42.0897C28.8183 42.2871 28.3323 42.3503 27.8591 42.2713C27.3859 42.1923 26.9467 41.9746 26.5973 41.6459C26.2478 41.3172 26.0037 40.8922 25.896 40.4247C25.7882 39.9572 25.8216 39.4682 25.9918 39.0197C26.1621 38.5711 26.4617 38.1832 26.8525 37.905C27.2434 37.6268 27.7081 37.4708 28.1876 37.4569C28.7203 37.4417 29.2429 37.6045 29.6727 37.9195L32.2311 35.2038C32.3761 35.0474 32.4887 34.8638 32.5626 34.6638C32.6364 34.4637 32.67 34.251 32.6614 34.0379L32.5504 32.6037C32.5453 32.5429 32.5523 32.4817 32.571 32.4237C32.5897 32.3656 32.6197 32.3118 32.6592 32.2653C32.6988 32.2189 32.7471 32.1807 32.8015 32.1531Z" fill="#5459E8"/>
</svg>
