<svg width="16" height="16" viewBox="0 0 16 16" fill="none" xmlns="http://www.w3.org/2000/svg">
<path d="M0 4C0 1.79086 1.79086 0 4 0H12C14.2091 0 16 1.79086 16 4V12C16 14.2091 14.2091 16 12 16H4C1.79086 16 0 14.2091 0 12V4Z" fill="#5459E8"/>
<path fill-rule="evenodd" clip-rule="evenodd" d="M3.4628 8.00002C3.4628 5.49428 5.4941 3.46298 7.99984 3.46298C10.5056 3.46298 12.5369 5.49428 12.5369 8.00002C12.5369 10.5058 10.5056 12.5371 7.99984 12.5371C5.4941 12.5371 3.4628 10.5058 3.4628 8.00002ZM7.99984 2.16669C4.77818 2.16669 2.1665 4.77836 2.1665 8.00002C2.1665 11.2217 4.77818 13.8334 7.99984 13.8334C11.2215 13.8334 13.8332 11.2217 13.8332 8.00002C13.8332 4.77836 11.2215 2.16669 7.99984 2.16669ZM10.7892 6.2636C10.5113 5.95272 10.0356 5.95671 9.74546 6.2343L7.24736 8.61344L6.25435 7.67037L6.25404 7.67007C5.95553 7.38441 5.48499 7.39869 5.20189 7.6941C4.91575 7.99268 4.93038 8.46369 5.22583 8.74683L6.73032 10.183L6.73526 10.1876C6.87199 10.3129 7.05294 10.3914 7.24084 10.3914C7.42892 10.3914 7.61529 10.3174 7.75372 10.1807L10.7601 7.31093C11.0539 7.02941 11.0699 6.56237 10.7892 6.2636Z" fill="white"/>
</svg>
