<svg width="16" height="16" viewBox="0 0 16 16" fill="none" xmlns="http://www.w3.org/2000/svg">
<path d="M0 4C0 1.79086 1.79086 0 4 0H12C14.2091 0 16 1.79086 16 4V12C16 14.2091 14.2091 16 12 16H4C1.79086 16 0 14.2091 0 12V4Z" fill="#5459E8"/>
<path fill-rule="evenodd" clip-rule="evenodd" d="M7.01235 4.95393C6.42377 5.14474 5.92873 5.48929 5.55671 5.92923L6.42686 5.80752C6.71191 5.76765 6.97531 5.96641 7.01518 6.25146C7.05505 6.53651 6.85629 6.79991 6.57124 6.83978L4.33277 7.15287C4.04771 7.19274 3.78431 6.99398 3.74445 6.70893L3.43136 4.47046C3.39149 4.18541 3.59025 3.92201 3.8753 3.88214C4.16035 3.84227 4.42375 4.04103 4.46362 4.32608L4.60157 5.31237C5.11411 4.66325 5.81818 4.15303 6.66383 3.87888C8.93981 3.14104 11.383 4.38793 12.1208 6.66391C12.2171 6.96078 12.0544 7.27945 11.7576 7.37569C11.4607 7.47193 11.142 7.30929 11.0458 7.01243C10.5004 5.33019 8.69459 4.40856 7.01235 4.95393ZM4.24207 8.6241C4.53893 8.52786 4.85761 8.6905 4.95385 8.98737C5.49922 10.6696 7.30505 11.5912 8.98729 11.0459C9.57574 10.8551 10.0707 10.5106 10.4427 10.0708L9.57325 10.1924C9.2882 10.2323 9.0248 10.0336 8.98493 9.74851C8.94506 9.46346 9.14382 9.20006 9.42887 9.16019L11.6673 8.8471C11.9524 8.80723 12.2158 9.00599 12.2557 9.29104L12.5687 11.5295C12.6086 11.8146 12.4099 12.078 12.1248 12.1178C11.8398 12.1577 11.5764 11.9589 11.5365 11.6739L11.3984 10.687C10.8859 11.3363 10.1817 11.8467 9.33581 12.1209C7.05983 12.8588 4.61665 11.6119 3.8788 9.33589C3.78256 9.03902 3.9452 8.72034 4.24207 8.6241Z" fill="white"/>
</svg>
