<svg width="48" height="48" viewBox="0 0 48 48" fill="none" xmlns="http://www.w3.org/2000/svg">
<rect width="48" height="48" rx="8" fill="white"/>
<path fill-rule="evenodd" clip-rule="evenodd" d="M27.5 16C27.5 17.933 25.933 19.5 24 19.5C22.067 19.5 20.5 17.933 20.5 16C20.5 14.067 22.067 12.5 24 12.5C25.933 12.5 27.5 14.067 27.5 16ZM27.7742 20.6646C29.132 19.5645 30 17.8836 30 16C30 12.6863 27.3137 10 24 10C20.6863 10 18 12.6863 18 16C18 17.8836 18.868 19.5645 20.2258 20.6646C18.558 21.2737 17.079 22.2751 15.9004 23.5571C15.4364 23.2079 14.9321 22.9095 14.3956 22.6701C15.3823 21.7568 16 20.4505 16 19C16 16.2386 13.7614 14 11 14C8.23858 14 6 16.2386 6 19C6 20.4505 6.61768 21.7568 7.60437 22.6701C4.89114 23.8806 3 26.6018 3 29.7647C3 31.5515 4.44849 33 6.23529 33H13.126C13.5701 34.7252 15.1362 36 17 36H31C32.8638 36 34.4299 34.7252 34.874 33H41.7647C43.5515 33 45 31.5515 45 29.7647C45 26.6018 43.1089 23.8806 40.3956 22.6701C41.3823 21.7568 42 20.4505 42 19C42 16.2386 39.7614 14 37 14C34.2386 14 32 16.2386 32 19C32 20.4505 32.6177 21.7568 33.6044 22.6701C33.0679 22.9095 32.5636 23.2079 32.0996 23.5571C30.921 22.2751 29.442 21.2737 27.7742 20.6646ZM33.5728 25.5776C34.4041 27.0419 34.909 28.7156 34.9888 30.5H41.7647C42.1708 30.5 42.5 30.1708 42.5 29.7647C42.5 26.8571 40.1429 24.5 37.2353 24.5H36.7647C35.5646 24.5 34.4583 24.9015 33.5728 25.5776ZM13.0112 30.5C13.091 28.7156 13.5959 27.0419 14.4272 25.5776C13.5417 24.9015 12.4354 24.5 11.2353 24.5H10.7647C7.85709 24.5 5.5 26.8571 5.5 29.7647C5.5 30.1708 5.8292 30.5 6.23529 30.5H13.0112ZM32.5 31V32C32.5 32.8284 31.8284 33.5 31 33.5H17C16.1716 33.5 15.5 32.8284 15.5 32V31C15.5 26.3056 19.3056 22.5 24 22.5C28.6944 22.5 32.5 26.3056 32.5 31ZM11 21.5C12.3807 21.5 13.5 20.3807 13.5 19C13.5 17.6193 12.3807 16.5 11 16.5C9.61929 16.5 8.5 17.6193 8.5 19C8.5 20.3807 9.61929 21.5 11 21.5ZM37 21.5C38.3807 21.5 39.5 20.3807 39.5 19C39.5 17.6193 38.3807 16.5 37 16.5C35.6193 16.5 34.5 17.6193 34.5 19C34.5 20.3807 35.6193 21.5 37 21.5Z" fill="#242424"/>
</svg>
