<svg width="16" height="14" viewBox="0 0 16 14" fill="none" xmlns="http://www.w3.org/2000/svg">
<path d="M15.8555 7.58548L15.8666 7.57436C15.8777 7.56324 15.8888 7.55212 15.8999 7.541C15.8999 7.541 15.8999 7.52988 15.9111 7.52988C15.9222 7.51876 15.9333 7.49653 15.9333 7.48541V7.47429C15.9444 7.46317 15.9444 7.44093 15.9555 7.42981C15.9555 7.42981 15.9555 7.42981 15.9555 7.41869C15.9666 7.39646 15.9666 7.38534 15.9778 7.3631C15.9778 7.3631 15.9778 7.3631 15.9778 7.35198C15.9778 7.32974 15.9889 7.31862 15.9889 7.29639V7.28527C15.9889 7.27415 16 7.25191 16 7.24079C16 7.21855 16 7.19632 16 7.17408C16 7.15184 16 7.1296 16 7.10737C16 7.09625 16 7.07401 15.9889 7.06289C15.9889 7.05177 15.9889 7.05177 15.9889 7.04065C15.9889 7.01842 15.9778 7.0073 15.9778 6.98506C15.9778 6.98506 15.9778 6.98506 15.9778 6.97394C15.9666 6.9517 15.9666 6.94058 15.9555 6.91835C15.9555 6.91835 15.9555 6.91835 15.9555 6.90723C15.9444 6.88499 15.9444 6.87387 15.9333 6.86275V6.85163C15.9222 6.84051 15.9111 6.81828 15.9111 6.80716C15.9111 6.80716 15.911 6.79604 15.8999 6.79604C15.8888 6.78492 15.8777 6.7738 15.8666 6.75156L15.8555 6.74045C15.8443 6.71821 15.8221 6.70709 15.811 6.69597L9.80681 0.6918C9.55108 0.436067 9.12856 0.436067 8.86171 0.6918C8.60598 0.947533 8.60598 1.37005 8.86171 1.6369L13.7318 6.49583H0.66713C0.300209 6.49583 0 6.79604 0 7.16296C0 7.52988 0.300209 7.83009 0.66713 7.83009H13.7318L8.86171 12.7001C8.60598 12.9559 8.60598 13.3784 8.86171 13.6452C8.99514 13.7787 9.16192 13.8454 9.3287 13.8454C9.49548 13.8454 9.67338 13.7787 9.79569 13.6452L15.7999 7.64107C15.8332 7.61883 15.8443 7.60771 15.8555 7.58548Z" fill="#2D5BD0"/>
</svg>
