<svg width="16" height="16" viewBox="0 0 16 16" fill="none" xmlns="http://www.w3.org/2000/svg">
<path fill-rule="evenodd" clip-rule="evenodd" d="M9.0767 11.7944C8.22521 12.2303 7.26036 12.4762 6.23808 12.4762C2.79288 12.4762 0 9.68327 0 6.23808C0 2.79288 2.79288 0 6.23808 0C9.68327 0 12.4762 2.79288 12.4762 6.23808C12.4762 7.26095 12.23 8.22632 11.7936 9.07817L15.4363 12.7208C16.1864 13.471 16.1864 14.6872 15.4363 15.4374C14.6861 16.1875 13.4699 16.1875 12.7197 15.4374L9.0767 11.7944ZM11.4069 6.23808C11.4069 9.09271 9.09271 11.4069 6.23808 11.4069C3.38344 11.4069 1.0693 9.09271 1.0693 6.23808C1.0693 3.38344 3.38344 1.0693 6.23808 1.0693C9.09271 1.0693 11.4069 3.38344 11.4069 6.23808ZM10.0052 11.2107L13.4758 14.6813C13.8084 15.0138 14.3476 15.0138 14.6802 14.6813C15.0127 14.3487 15.0127 13.8095 14.6802 13.4769L11.2097 10.0065C10.865 10.4606 10.4594 10.866 10.0052 11.2107Z" fill="#242424"/>
<path fill-rule="evenodd" clip-rule="evenodd" d="M6 3C6 2.72386 6.22386 2.5 6.5 2.5C8.433 2.5 10 4.067 10 6C10 6.27614 9.77614 6.5 9.5 6.5C9.22386 6.5 9 6.27614 9 6C9 4.61929 7.88071 3.5 6.5 3.5C6.22386 3.5 6 3.27614 6 3Z" fill="#242424"/>
</svg>
