<svg width="36" height="36" viewBox="0 0 36 36" fill="none" xmlns="http://www.w3.org/2000/svg">
<path d="M19.7476 31.125H16.7926C15.7051 31.125 14.7751 30.4125 14.6251 29.4675L14.3101 27.4575C13.5676 27.1425 12.8626 26.7375 12.2176 26.25L10.3201 26.985C9.42014 27.3375 8.36263 26.895 7.80763 25.95L6.33013 23.3775C5.79013 22.4475 5.94013 21.285 6.69014 20.6775L8.27263 19.4025C8.22763 19.0125 8.20513 18.6075 8.20513 18.1875C8.20513 17.7675 8.22763 17.37 8.27263 16.9725L6.69014 15.6975C5.94013 15.09 5.79013 13.9275 6.33013 12.9975L7.80013 10.44C8.35513 9.4875 9.41264 9.045 10.3126 9.3975L12.2101 10.1325C12.8626 9.6375 13.5601 9.2325 14.3026 8.925L14.6176 6.915C14.7751 5.9625 15.7051 5.25 16.7926 5.25H19.7476C20.8351 5.25 21.7651 5.9625 21.9151 6.9075L22.2301 8.9175C22.9726 9.2325 23.6776 9.6375 24.3226 10.125L26.2201 9.39C27.1201 9.0375 28.1776 9.48 28.7326 10.425L30.2101 12.9975C30.7501 13.9275 30.6001 15.09 29.8501 15.6975L28.2676 16.9725C28.3126 17.37 28.3351 17.775 28.3351 18.1875C28.3351 18.6 28.3126 19.005 28.2676 19.4025L29.8501 20.6775C30.6001 21.285 30.7501 22.44 30.2026 23.3775L28.7251 25.935C28.1701 26.8875 27.1126 27.33 26.2126 26.9775L24.3151 26.2425C23.6626 26.7375 22.9651 27.1425 22.2226 27.45L21.9076 29.46C21.7651 30.4125 20.8351 31.125 19.7476 31.125ZM16.4776 29.1825C16.5001 29.1825 16.6126 29.25 16.7851 29.25H19.7401C19.9276 29.25 20.0476 29.1675 20.0626 29.1375L20.4301 26.73V26.22L21.0826 25.8825C21.9676 25.5675 22.7926 25.0875 23.5276 24.4725L23.7151 24.3525L24.1351 24.1425L24.5176 24.3075L26.8951 25.23C26.8876 25.215 27.0151 25.1625 27.1126 24.9975L28.5901 22.44C28.6801 22.29 28.6726 22.1625 28.6576 22.125L26.6251 20.475L26.3476 20.1975L26.3326 19.68L26.3476 19.5975C26.4301 19.1475 26.4676 18.6675 26.4676 18.1875C26.4676 17.7075 26.4301 17.2275 26.3476 16.7775L26.3326 16.6125V16.2225L26.6926 15.8325L28.6726 14.235C28.6651 14.2275 28.6801 14.0925 28.5826 13.935L27.1051 11.3625C27.0151 11.205 26.8876 11.145 26.8501 11.1375L24.5551 12.0375L24.1726 12.225L23.5276 11.8875C22.7926 11.2725 21.9676 10.7925 21.0826 10.4775L20.9776 10.4325L20.4601 10.17L20.4376 9.675L20.0551 7.1925C20.0476 7.2 19.9351 7.125 19.7401 7.125H16.7851C16.5976 7.125 16.4776 7.2075 16.4626 7.2375L16.0951 9.645V10.155L15.4501 10.4925C14.5651 10.8075 13.7401 11.2875 13.0051 11.9025L12.8176 12.0225L12.3976 12.2325L12.0151 12.06L9.63763 11.145C9.64513 11.16 9.51764 11.2125 9.42014 11.3775L7.95013 13.935C7.85263 14.1 7.86763 14.235 7.88263 14.265L10.2976 16.2L10.1926 16.7475C10.1101 17.205 10.0651 17.6775 10.0651 18.18C10.0651 18.6825 10.1026 19.155 10.1926 19.6125L10.2976 20.16L7.86013 22.125C7.86763 22.1325 7.85263 22.26 7.95013 22.425L9.42764 24.9975C9.51764 25.155 9.64513 25.215 9.68263 25.2225L11.9776 24.3225L12.3601 24.135L13.0051 24.4725C13.7401 25.0875 14.5651 25.5675 15.4501 25.8825L15.5551 25.9275L16.0726 26.19L16.0951 26.7L16.4776 29.1825Z" fill="#616293"/>
<path d="M18.2701 24C15.0676 24 12.4576 21.39 12.4576 18.1875C12.4576 14.985 15.0676 12.375 18.2701 12.375C21.4726 12.375 24.0826 14.985 24.0826 18.1875C24.0826 21.39 21.4726 24 18.2701 24ZM18.2701 14.25C16.1026 14.25 14.3326 16.02 14.3326 18.1875C14.3326 20.355 16.1026 22.125 18.2701 22.125C20.4376 22.125 22.2076 20.355 22.2076 18.1875C22.2076 16.02 20.4376 14.25 18.2701 14.25Z" fill="#616293"/>
</svg>
