<svg width="14" height="18" viewBox="0 0 14 18" fill="none" xmlns="http://www.w3.org/2000/svg">
<path d="M9.13082 9.52386C9.23395 10.0527 9.69912 10.4542 10.2586 10.4542C10.8928 10.4542 11.4084 9.94075 11.4084 9.30444C11.4084 8.67032 10.8949 8.15469 10.2586 8.15469C9.69912 8.15469 9.23395 8.55403 9.13082 9.08502H8.07542C7.95474 9.08502 7.856 9.18376 7.856 9.30444C7.856 9.42512 7.95474 9.52386 8.07542 9.52386H9.13082Z" fill="#5459E8"/>
<path d="M10.059 1.08283L8.63933 1.24301C8.63055 1.24301 8.62177 1.2452 8.61519 1.2452C8.50548 1.2452 8.41113 1.16182 8.39797 1.04992C8.3848 0.929237 8.47038 0.821722 8.59105 0.806363L9.96461 0.65277L9.92292 0.477235C9.92292 -0.159078 4.79731 -0.159078 4.79731 0.477235L4.17416 3.27043H10.5461L10.059 1.08283ZM9.67498 2.07241L7.71996 2.3028C7.71119 2.3028 7.70241 2.30499 7.69363 2.30499C7.58392 2.30499 7.48957 2.22381 7.47641 2.1119C7.46324 1.99122 7.54882 1.88151 7.6695 1.86835L9.62452 1.63796C9.743 1.6226 9.85491 1.71037 9.86807 1.83105C9.88124 1.94953 9.79566 2.05705 9.67498 2.07241Z" fill="#5459E8"/>
<path d="M8.93335 13.3703C9.56747 13.3703 10.0831 12.8568 10.0831 12.2205C10.0831 11.5864 9.56967 11.0708 8.93335 11.0708C8.37384 11.0708 7.90867 11.4701 7.80554 12.0011H6.55486V10.09C6.55486 9.00385 5.67499 8.12398 4.58887 8.12398C4.0118 8.12398 3.59271 8.32804 3.23506 8.72519C3.83187 8.8327 4.36725 9.15305 4.74685 9.62919C4.82145 9.72134 4.79073 9.89469 4.69638 9.96709C4.60423 10.0395 4.38481 10.0329 4.31021 9.94076C3.98766 9.53484 3.52908 9.26715 3.01783 9.18377C1.89002 9.00385 0.825841 9.77181 0.643723 10.8996C0.555956 11.446 0.685413 11.9945 1.01015 12.4421C1.33489 12.8897 1.81322 13.186 2.35958 13.2737C2.47587 13.2935 2.56583 13.4185 2.54608 13.5721C2.52633 13.7323 2.39468 13.7828 2.28936 13.7828C2.27839 13.7828 2.26742 13.7828 2.25425 13.7806C1.8593 13.717 1.49726 13.5634 1.18349 13.3352C0.957492 13.6445 0.858753 13.943 0.858753 14.3555C0.858753 15.3758 1.67499 16.203 2.6887 16.2271C2.77208 17.2189 3.60368 18 4.61739 18C5.12205 18 5.57844 17.8047 5.92293 17.491C5.96243 17.4493 6.00192 17.4076 6.03922 17.3615C6.70187 16.5475 6.57899 15.3472 5.76495 14.6868C5.6728 14.6122 5.58722 14.373 5.69474 14.237C5.76934 14.1448 5.94487 14.1492 6.03484 14.2238C6.24548 14.395 6.41662 14.599 6.55047 14.8184V12.4421C6.54169 12.4421 6.53292 12.4443 6.52414 12.4443C6.37932 12.429 6.2367 12.4685 6.12041 12.5584C6.08091 12.5891 6.03264 12.6045 5.98437 12.6045C5.91854 12.6045 5.85491 12.576 5.81103 12.5211C5.73643 12.4268 5.75179 12.2885 5.84833 12.2139C6.048 12.0582 6.29594 11.9879 6.54608 12.0099V12.4421H7.79457C7.91086 12.9709 8.37384 13.3703 8.93335 13.3703ZM4.82145 16.034C4.79951 16.1371 4.70735 16.2074 4.60642 16.2074C4.59106 16.2074 4.5757 16.2052 4.55815 16.203C4.43966 16.1766 4.36506 16.0603 4.39139 15.9419C4.43089 15.7641 4.39797 15.5798 4.30143 15.4262C4.20269 15.2704 4.05129 15.1629 3.87137 15.1234C3.69145 15.0817 3.50713 15.1147 3.35135 15.2134C3.25261 15.2748 3.11657 15.2441 3.05074 15.141C2.98711 15.0379 3.01564 14.904 3.11876 14.8382C3.37329 14.678 3.67609 14.6253 3.96791 14.6912C4.26193 14.757 4.51207 14.9347 4.67225 15.1893C4.83462 15.4438 4.88728 15.7422 4.82145 16.034ZM5.17033 11.1893C5.01234 11.5557 4.71613 11.8343 4.33654 11.977C4.3124 11.9857 4.28607 11.9901 4.26193 11.9967C4.1983 12.0362 4.15003 12.0955 4.12809 12.1701C4.08201 12.3324 4.17636 12.5014 4.33873 12.5497C4.45502 12.5826 4.52304 12.7054 4.48793 12.8217C4.45941 12.9183 4.37164 12.9797 4.27729 12.9797C4.25755 12.9797 4.2378 12.9775 4.21586 12.9709C3.82749 12.859 3.60148 12.4575 3.70242 12.0691C3.5203 12.0582 3.34038 12.0165 3.16704 11.9419C2.79402 11.7817 2.5022 11.4899 2.34422 11.1234C2.29594 11.0115 2.34861 10.8821 2.46051 10.836C2.57241 10.7877 2.70187 10.8404 2.74795 10.9523C2.85985 11.2156 3.07049 11.424 3.34038 11.5403C3.61246 11.6566 3.91086 11.6676 4.18075 11.5667C4.44844 11.4679 4.65689 11.2726 4.7666 11.0159C4.81487 10.904 4.94213 10.8535 5.05403 10.9018C5.16594 10.9501 5.2186 11.0795 5.17033 11.1893Z" fill="#5459E8"/>
<path d="M13.054 8.55623L11.088 6.36863C11.0595 6.33791 11.0244 6.32036 10.9849 6.30939C10.9849 6.30719 10.9871 6.3028 10.9871 6.30061V5.5502H11.2241C11.6081 5.5502 11.9196 5.23862 11.9196 4.85464V4.54746C11.9196 4.16347 11.6081 3.8519 11.2241 3.8519H3.69363C3.30965 3.8519 2.99808 4.16347 2.99808 4.54746V4.85464C2.99808 5.23862 3.30965 5.5502 3.69363 5.5502H3.92402V6.29622H3.86697C3.80554 6.29622 3.74629 6.32255 3.7046 6.36863L2.90373 7.25947C2.82254 7.34943 2.82912 7.48766 2.92128 7.56885C3.01124 7.65003 3.14948 7.64126 3.23066 7.5513L3.96571 6.73286H10.8291L12.7446 8.86342C12.8741 8.9819 12.9465 9.13769 12.9465 9.30225V13.2715C12.9465 14.1404 12.5735 14.9567 11.8977 15.5732C11.8077 15.6544 11.8011 15.7927 11.8823 15.8826C11.9262 15.9309 11.9855 15.955 12.0447 15.955C12.0974 15.955 12.15 15.9353 12.1917 15.898C12.9487 15.2068 13.3832 14.2501 13.3832 13.2715V9.30445C13.3832 9.01921 13.2581 8.74054 13.054 8.55623ZM10.5461 6.29622H4.36067V5.5502H10.5461V6.29622Z" fill="#5459E8"/>
<path d="M11.2614 12.8546C11.1407 12.8634 11.0507 12.9687 11.0595 13.0894L11.11 13.7696C11.121 13.9737 11.0464 14.1733 10.9059 14.3225L9.69255 15.6127C9.49507 15.4701 9.25152 15.3845 8.98822 15.3933C8.3541 15.413 7.85602 15.9418 7.87357 16.576C7.89332 17.2101 8.42212 17.7082 9.05624 17.6906C9.69035 17.6709 10.1884 17.1421 10.1709 16.5079C10.1643 16.2973 10.0985 16.102 9.99315 15.9353L11.2263 14.6253C11.4479 14.3906 11.5642 14.0724 11.5488 13.7433L11.4984 13.0565C11.4874 12.9358 11.3799 12.8437 11.2614 12.8546Z" fill="#5459E8"/>
</svg>
