<svg width="36" height="36" viewBox="0 0 36 36" fill="none" xmlns="http://www.w3.org/2000/svg">
<path fill-rule="evenodd" clip-rule="evenodd" d="M17.32 6.57955L16.7519 9.13635H19.2481L18.68 6.57955H17.32ZM14.4205 9.13635H15.0057L15.6857 6.0763C15.8417 5.3744 16.4643 4.875 17.1833 4.875H18.8167C19.5357 4.875 20.1583 5.37439 20.3143 6.0763L20.9943 9.13635H21.5796C22.0503 9.13635 22.4318 9.51793 22.4318 9.98863C22.4318 10.4593 22.0503 10.8409 21.5796 10.8409H21.3731L22.8125 17.3182H23.6251C24.0958 17.3182 24.4773 17.6997 24.4773 18.1704C24.4773 18.6411 24.0958 19.0227 23.6251 19.0227H23.1912L25.4658 29.2581C25.6787 30.2162 24.9496 31.125 23.9682 31.125H12.0318C11.0504 31.125 10.3213 30.2162 10.5342 29.2581L12.8088 19.0227H12.3751C11.9044 19.0227 11.5228 18.6411 11.5228 18.1704C11.5228 17.6997 11.9044 17.3182 12.3751 17.3182H13.1875L14.6269 10.8409H14.4205C13.9498 10.8409 13.5682 10.4593 13.5682 9.98863C13.5682 9.51793 13.9498 9.13635 14.4205 9.13635ZM12.4334 28.5693L14.4783 19.3673L22.0287 24.0538L12.4334 28.5693ZM23.7557 29.4205H13.8272L22.6094 25.2877C22.6817 25.2536 22.7491 25.2147 22.8115 25.1715L23.7557 29.4205ZM21.4451 19.0227L22.2349 22.5768L16.5088 19.0227H21.4451ZM15.1723 16.2442L20.0352 13.6984L16.2589 11.3545L15.1723 16.2442ZM16.0611 17.3182H21.0663L20.5447 14.9708L16.0611 17.3182ZM19.8845 11.9998L18.0173 10.8409H19.6269L19.8845 11.9998Z" fill="#616293"/>
</svg>
